<?xml version="1.0" standalone="no"?>
<!DOCTYPE svg PUBLIC "-//W3C//DTD SVG 20010904//EN"
 "http://www.w3.org/TR/2001/REC-SVG-20010904/DTD/svg10.dtd">
<svg version="1.0" xmlns="http://www.w3.org/2000/svg"
 width="1024.000000pt" height="1024.000000pt" viewBox="0 0 1024.000000 1024.000000"
 preserveAspectRatio="xMidYMid meet">

<g transform="translate(0.000000,1024.000000) scale(0.100000,-0.100000)"
fill="#000000" stroke="none">
<path d="M2911 7169 c-68 -13 -119 -52 -147 -112 -49 -105 -25 -190 103 -365
48 -64 114 -155 148 -202 34 -47 189 -258 345 -470 156 -212 308 -420 339
-462 54 -76 56 -78 98 -78 24 0 43 4 43 10 0 9 -139 200 -570 785 -97 132
-228 310 -291 395 -63 85 -124 175 -136 199 -41 79 -25 168 36 204 54 32 89
30 256 -13 810 -208 1960 -509 3455 -903 195 -52 372 -102 394 -112 47 -23
142 -108 162 -146 8 -16 13 -29 11 -29 -5 0 -700 107 -780 120 -70 11 -378 58
-1282 195 -346 52 -748 114 -893 136 -144 23 -265 39 -268 36 -3 -3 35 -72 83
-153 49 -82 118 -200 153 -261 60 -105 66 -113 99 -119 20 -3 44 -8 55 -11 10
-3 16 -1 13 3 -70 116 -256 438 -254 441 2 1 147 -19 323 -46 175 -27 488 -75
694 -106 644 -97 1739 -264 1866 -285 134 -22 314 -27 314 -9 0 36 -79 155
-144 217 -108 103 -24 74 -951 318 -346 91 -713 187 -815 214 -102 27 -340 89
-530 139 -190 49 -552 144 -805 210 -1079 281 -1049 274 -1124 260z"/>
<path d="M2798 6498 c-62 -87 -140 -226 -186 -333 -40 -92 -112 -303 -112
-329 0 -8 16 -23 35 -35 l35 -20 15 57 c61 221 137 398 236 552 30 47 58 90
62 96 3 6 -4 25 -17 43 l-24 32 -44 -63z"/>
<path d="M3007 6163 c-43 -93 -101 -260 -109 -312 -2 -20 3 -26 34 -37 l38
-13 10 42 c32 119 56 190 91 266 l39 84 -22 34 c-13 18 -26 33 -29 33 -3 0
-26 -44 -52 -97z"/>
<path d="M5750 5724 c-86 -23 -156 -61 -221 -122 -76 -70 -116 -128 -144 -207
l-21 -62 -28 23 c-26 23 -34 24 -175 24 -135 0 -151 -2 -175 -21 l-26 -20 0
161 c0 221 -7 230 -192 230 -99 0 -156 -14 -174 -41 -5 -8 -11 -72 -14 -144
l-5 -130 -123 147 c-141 170 -145 172 -299 166 -86 -3 -95 -5 -120 -31 l-28
-27 -3 -437 c-3 -459 -1 -478 42 -508 25 -18 265 -21 296 -5 35 19 45 52 50
175 l5 120 123 -147 c102 -122 129 -149 160 -158 47 -13 166 -13 213 0 62 17
69 39 69 210 0 82 3 150 7 150 3 0 14 -7 24 -16 13 -12 46 -16 150 -18 147 -4
186 3 211 36 16 22 16 22 27 -17 30 -113 155 -255 274 -313 86 -42 153 -55
261 -50 146 8 253 57 359 164 53 54 124 184 133 245 10 57 21 47 27 -23 14
-174 131 -318 300 -370 57 -17 87 -20 181 -16 99 4 119 8 179 35 126 60 213
170 242 310 9 41 15 126 15 217 l0 149 21 -19 c16 -15 40 -20 105 -23 l83 -3
3 -299 3 -299 27 -27 c25 -24 36 -27 117 -31 125 -6 178 3 213 38 l28 28 0
295 0 294 86 5 c76 4 88 7 112 31 26 26 27 33 30 140 3 128 -5 153 -58 179
-31 16 -70 18 -355 18 -178 0 -335 -4 -354 -10 -19 -5 -44 -19 -56 -30 -19
-18 -23 -19 -28 -6 -14 36 -64 48 -188 44 -114 -3 -120 -4 -146 -31 l-28 -27
-5 -285 c-6 -318 -6 -319 -75 -319 -69 0 -69 1 -75 319 l-5 285 -28 27 c-26
27 -33 28 -134 31 -201 7 -216 -8 -220 -218 -5 -242 -3 -222 -18 -166 -51 185
-199 333 -380 381 -73 19 -202 18 -275 -1z m226 -35 c291 -53 468 -351 373
-628 -75 -217 -317 -361 -539 -322 -192 35 -357 188 -399 371 -59 257 110 518
373 575 77 17 117 18 192 4z m-1645 -57 c24 -26 98 -111 164 -190 l120 -142 3
172 c2 142 5 175 19 190 14 15 33 18 134 18 110 0 119 -1 133 -22 14 -19 16
-79 16 -443 0 -364 -2 -424 -16 -443 -14 -20 -23 -22 -118 -22 l-103 0 -44 48
c-24 26 -98 113 -164 194 l-120 146 -6 -177 c-3 -97 -7 -177 -8 -178 -24 -30
-37 -33 -143 -33 -90 0 -115 3 -130 17 -17 15 -18 42 -18 446 0 387 2 432 17
449 14 15 32 18 118 18 l102 0 44 -48z m2423 26 c14 -19 16 -64 16 -286 0
-289 3 -308 60 -337 37 -19 73 -19 110 0 57 29 60 48 60 337 0 222 2 267 16
286 14 21 23 22 133 22 85 0 122 -4 137 -14 18 -13 19 -30 22 -247 4 -339 -13
-438 -95 -546 -39 -51 -130 -107 -207 -128 -85 -23 -207 -16 -291 16 -83 32
-182 130 -216 214 -23 58 -24 71 -27 363 -3 276 -2 306 14 323 15 17 32 19
135 19 110 0 119 -1 133 -22z m1366 -5 c19 -25 21 -38 18 -121 -4 -119 -7
-122 -135 -122 l-93 0 0 -310 c0 -379 13 -350 -153 -350 -96 0 -116 3 -130 18
-13 15 -17 65 -23 330 l-7 312 -97 0 c-122 0 -124 2 -128 124 -3 81 -1 94 18
119 l21 27 344 0 344 0 21 -27z m-2806 -335 c12 -16 16 -47 16 -108 0 -129 -1
-130 -162 -130 -169 0 -168 -1 -168 128 0 134 -2 132 166 132 126 0 134 -1
148 -22z"/>
<path d="M5773 5645 c-114 -31 -199 -91 -261 -185 -57 -84 -75 -154 -70 -265
5 -115 41 -198 124 -285 228 -239 627 -153 748 160 40 101 31 240 -22 344 -32
65 -119 156 -180 189 -100 55 -232 71 -339 42z m218 -233 c137 -72 160 -254
44 -361 -104 -96 -263 -71 -340 53 -25 41 -30 60 -30 110 2 174 173 278 326
198z"/>
<path d="M5797 5379 c-50 -26 -89 -87 -95 -149 -16 -164 180 -261 310 -152 38
33 58 78 58 136 0 56 -14 93 -48 130 -54 58 -152 73 -225 35z m147 -33 c98
-41 114 -178 29 -243 -91 -70 -226 -4 -226 110 0 54 25 99 72 126 42 24 79 26
125 7z"/>
<path d="M4091 5636 c-8 -9 -10 -130 -9 -427 l3 -414 110 0 110 0 5 225 5 224
159 -194 c234 -286 202 -260 313 -260 l93 0 0 424 c0 377 -2 425 -16 430 -33
13 -182 6 -197 -9 -12 -11 -15 -54 -16 -217 -1 -111 -3 -203 -5 -205 -2 -2
-61 65 -132 149 -70 84 -154 183 -187 221 l-59 67 -83 0 c-58 0 -86 -4 -94
-14z"/>
<path d="M6516 5634 c-14 -13 -15 -52 -12 -292 5 -347 15 -386 128 -487 71
-64 157 -89 282 -83 120 7 183 34 253 111 91 100 97 125 101 455 3 211 1 287
-8 297 -9 11 -36 15 -104 15 -50 0 -96 -4 -103 -8 -8 -5 -13 -84 -15 -284 -3
-261 -4 -278 -24 -304 -36 -48 -68 -66 -121 -67 -61 -1 -109 25 -138 73 -19
33 -20 55 -23 306 -4 314 10 284 -124 284 -56 0 -81 -4 -92 -16z"/>
<path d="M7422 5638 c-7 -7 -12 -43 -12 -93 0 -50 5 -86 12 -93 8 -8 48 -12
115 -12 l103 0 2 -322 3 -323 110 0 110 0 3 323 2 322 103 0 c67 0 107 4 115
12 16 16 16 170 0 186 -9 9 -97 12 -333 12 -236 0 -324 -3 -333 -12z"/>
<path d="M5040 5210 l0 -90 125 0 125 0 0 90 0 90 -125 0 -125 0 0 -90z"/>
<path d="M2234 5720 c-12 -4 -31 -21 -43 -36 -21 -26 -21 -32 -21 -466 0 -499
-1 -489 73 -509 23 -6 86 -9 143 -7 118 4 147 18 163 75 16 56 14 837 -2 883
-19 55 -60 70 -187 69 -58 0 -115 -4 -126 -9z m258 -57 c17 -15 18 -42 18
-446 0 -387 -2 -432 -17 -449 -14 -15 -32 -18 -130 -18 -169 0 -153 -47 -153
465 0 512 -15 465 152 465 90 0 115 -3 130 -17z"/>
<path d="M2290 5641 l-35 -6 -3 -422 -2 -423 109 0 110 0 3 413 c2 226 -1 420
-5 430 -6 14 -20 17 -75 16 -37 -1 -83 -4 -102 -8z"/>
<path d="M2663 5716 c-58 -26 -57 -20 -54 -506 2 -269 7 -452 13 -463 17 -32
71 -47 170 -47 51 0 109 5 129 10 59 16 68 41 71 185 l3 126 118 -143 c66 -78
129 -149 140 -158 17 -11 48 -15 134 -14 124 2 155 13 174 61 6 16 9 193 7
464 l-3 439 -28 27 c-26 27 -33 28 -134 31 -117 4 -169 -6 -199 -39 -16 -18
-20 -41 -24 -146 l-5 -124 -102 123 c-159 192 -144 182 -271 186 -77 2 -116
-2 -139 -12z m236 -45 c9 -5 84 -91 166 -190 l150 -180 5 175 c5 159 7 177 24
190 28 20 234 20 262 0 18 -14 19 -30 19 -451 0 -421 -1 -437 -19 -451 -14
-10 -50 -14 -122 -14 l-103 0 -45 53 c-24 28 -94 113 -156 187 -61 74 -115
137 -121 138 -5 2 -9 -64 -9 -165 0 -223 7 -213 -150 -213 -111 0 -120 1 -134
22 -14 19 -16 79 -16 447 0 381 2 426 17 443 13 15 32 18 115 18 55 0 107 -4
117 -9z"/>
<path d="M2697 5643 c-4 -3 -7 -197 -7 -430 l0 -423 110 0 110 0 0 220 c0 121
4 220 9 220 5 0 91 -99 191 -220 l182 -221 97 3 96 3 0 425 0 425 -101 3 c-76
2 -104 -1 -112 -11 -8 -9 -13 -87 -14 -228 l-3 -214 -160 195 c-231 281 -206
260 -307 260 -47 0 -88 -3 -91 -7z"/>
<path d="M3619 5367 c-32 -24 -39 -56 -39 -167 0 -104 1 -112 25 -135 13 -14
34 -25 47 -26 13 0 82 0 153 1 124 1 131 2 155 26 24 23 25 30 25 145 0 120 0
121 -28 145 -27 23 -34 24 -175 24 -100 -1 -152 -5 -163 -13z m307 -41 c17
-13 19 -27 19 -116 0 -132 2 -130 -164 -130 -162 0 -161 0 -161 128 0 133 -1
132 160 132 93 0 131 -4 146 -14z"/>
<path d="M3658 5219 c-2 -45 0 -85 3 -90 3 -6 59 -8 125 -7 l119 3 3 88 3 87
-125 0 -124 0 -4 -81z"/>
<path d="M8012 4798 c-7 -7 -12 -17 -12 -22 0 -6 5 -3 11 7 12 20 49 23 69 5
12 -11 12 -10 1 5 -15 20 -51 23 -69 5z"/>
<path d="M8026 4781 c-4 -5 -2 -20 3 -33 10 -23 10 -22 10 5 1 16 5 26 11 22
5 -3 7 -13 4 -23 -5 -14 -4 -14 4 -3 6 8 8 20 5 28 -6 15 -29 18 -37 4z"/>
<path d="M8090 4760 c0 -7 -8 -22 -17 -32 -15 -17 -15 -18 0 -13 17 7 33 42
23 52 -3 4 -6 0 -6 -7z"/>
<path d="M8000 4741 c0 -10 29 -36 34 -30 1 2 -6 12 -16 22 -10 9 -18 13 -18
8z"/>
<path d="M4453 4704 l-22 -35 262 -346 c278 -368 300 -390 432 -456 152 -76
395 -134 395 -94 0 8 -64 126 -143 263 -79 137 -190 330 -247 429 -57 99 -108
185 -114 192 -8 9 -18 6 -40 -12 l-28 -23 216 -376 c119 -207 216 -378 216
-381 0 -34 -241 70 -333 143 -37 30 -180 212 -439 560 -71 94 -130 172 -131
172 -1 -1 -12 -17 -24 -36z"/>
<path d="M3041 4678 l-24 -30 27 -57 c333 -681 1098 -1112 1881 -1060 150 10
388 54 503 93 39 14 72 23 72 20 0 -9 -199 -103 -290 -137 -117 -44 -269 -83
-403 -104 -135 -20 -418 -20 -554 1 -662 101 -1220 505 -1513 1096 -52 104
-53 105 -101 121 -27 8 -49 12 -49 7 0 -20 143 -291 197 -373 137 -207 302
-383 494 -527 373 -279 784 -417 1246 -418 468 0 882 140 1266 429 l89 66 -86
3 c-70 2 -92 -1 -126 -18 -42 -21 -48 -38 -30 -84 9 -24 7 -26 -28 -31 -20 -4
-49 -8 -63 -11 -14 -3 -60 2 -101 11 -56 11 -83 13 -103 5 -15 -6 -82 -21
-149 -35 -636 -127 -1259 50 -1714 490 -162 156 -346 410 -394 543 -7 17 -14
32 -18 31 -3 0 -16 -14 -29 -31z"/>
<path d="M5585 4598 c-45 -24 -45 -27 -45 -345 l0 -304 25 -24 24 -25 1151 0
1152 0 29 29 29 29 0 289 c0 319 -2 330 -60 350 -48 16 -2275 18 -2305 1z
m2316 -47 c18 -22 19 -42 19 -296 0 -260 -1 -273 -21 -299 l-20 -26 -1133 0
c-1008 0 -1134 2 -1154 16 -22 15 -22 17 -22 302 0 158 4 292 8 298 22 33 39
34 1175 31 l1129 -2 19 -24z"/>
<path d="M5607 4533 c-4 -3 -7 -129 -7 -279 0 -260 1 -274 19 -284 30 -16
2233 -14 2249 2 9 9 12 84 12 274 0 144 -3 269 -6 278 -6 14 -115 16 -1133 16
-620 0 -1131 -3 -1134 -7z m1064 -74 c88 -27 149 -110 149 -201 -1 -176 -185
-275 -337 -182 -120 75 -135 258 -27 341 65 49 140 64 215 42z m-808 -113 c17
-60 33 -103 36 -95 3 8 19 57 36 109 l31 95 53 0 53 0 29 -95 c16 -52 32 -102
35 -110 7 -16 16 7 54 138 l22 72 59 0 c32 0 59 -1 59 -2 0 -2 -29 -93 -63
-203 l-64 -200 -59 -3 -59 -3 -34 112 c-28 91 -36 108 -42 88 -4 -13 -19 -63
-34 -111 l-26 -88 -58 0 -57 0 -62 193 c-34 105 -62 198 -62 205 0 10 16 12
61 10 l62 -3 30 -109z m1334 94 c52 -23 83 -70 83 -125 0 -42 -29 -102 -55
-111 -21 -9 -20 -14 25 -83 22 -34 40 -64 40 -67 0 -3 -30 -4 -67 -2 l-67 3
-33 58 c-27 45 -39 57 -58 57 -24 0 -25 -3 -25 -60 l0 -60 -60 0 -60 0 0 205
0 205 118 0 c94 0 125 -4 159 -20z m303 -52 l0 -71 26 24 c14 13 42 45 62 72
l36 47 68 0 c37 0 68 -3 68 -6 0 -3 -31 -41 -69 -85 l-70 -78 63 -93 c35 -51
71 -105 81 -120 l17 -28 -73 0 -74 0 -43 70 c-24 39 -46 70 -49 70 -4 0 -15
-7 -25 -17 -13 -12 -18 -30 -18 -70 l0 -53 -60 0 -60 0 0 205 0 205 60 0 60 0
0 -72z"/>
<path d="M6539 4332 c-30 -27 -34 -36 -33 -78 1 -40 6 -52 33 -76 68 -61 161
-17 161 76 0 60 -30 95 -86 103 -36 5 -46 1 -75 -25z"/>
<path d="M7040 4315 l0 -45 48 0 c50 0 72 12 72 41 0 30 -29 49 -76 49 l-44 0
0 -45z"/>
</g>
</svg>
